# xmcd
#
# Track frame offsets: 
#        183
#        13833
#        26433
#        36258
#        48708
#        58608
#        72933
#        85083
#        99633
#        113433
#        127158
#        140358
#        158058
#        172308
#        184683
#        197733
#        211308
#        224208
#        238083
#
# Disc length: 3692 seconds
#
# Revision: 0
# Processed by: cddbd v1.5.2PL0 Copyright (c) Steve Scherf et al.
# Submitted via: ExactAudioCopy v0.99pb4
#
DISCID=1e0e6a13
DTITLE=Various Artist - The Original Blues Collection
DYEAR=1992
DGENRE=Blues
TTITLE0=John Lee Hooker - One bourbon, one scotch, one beer
TTITLE1=Muddy Waters - Hoochie coochie man
TTITLE2=Chuck Berry - Confessin' the blues
TTITLE3=Etta James - Something's got a hold on me
TTITLE4=Willie Dixon - 29 ways
TTITLE5=Sonny Boy Williamson - Help me
TTITLE6=Otis Rush - You know my love
TTITLE7=Lowell Fulson - Reconsider baby
TTITLE8=Memphis Slim - Guess I'm fool
TTITLE9=Albert King - Howlin' for my darlin'
TTITLE10=Buddy Guy - Let me love you baby
TTITLE11=Howlin' Wolf - Little red rooster
TTITLE12=Willie Mabon - I don't know
TTITLE13=Otis Spann - I'm leaving you
TTITLE14=Muddy Waters - Got my mojo workin'
TTITLE15=Bo Diddley - I'm a man
TTITLE16=Jimmy Witherspoon - When the lights go out
TTITLE17=Chuck Berry - Wee wee hours
TTITLE18=B.B. King - Why I sing the blues
EXTD=
EXTT0=
EXTT1=
EXTT2=
EXTT3=
EXTT4=
EXTT5=
EXTT6=
EXTT7=
EXTT8=
EXTT9=
EXTT10=
EXTT11=
EXTT12=
EXTT13=
EXTT14=
EXTT15=
EXTT16=
EXTT17=
EXTT18=
PLAYORDER=
